<?xml version="1.0" encoding="utf-8"?>
<!-- Generator: Adobe Illustrator 26.5.0, SVG Export Plug-In . SVG Version: 6.00 Build 0)  -->
<svg version="1.1"
	 id="svg12044" xmlns:rdf="http://www.w3.org/1999/02/22-rdf-syntax-ns#" xmlns:inkscape="http://www.inkscape.org/namespaces/inkscape" xmlns:sodipodi="http://sodipodi.sourceforge.net/DTD/sodipodi-0.dtd" xmlns:svg="http://www.w3.org/2000/svg" xmlns:dc="http://purl.org/dc/elements/1.1/" xmlns:cc="http://creativecommons.org/ns#" inkscape:version="0.92.0 r15299"
	 xmlns="http://www.w3.org/2000/svg" xmlns:xlink="http://www.w3.org/1999/xlink" x="0px" y="0px" viewBox="0 0 213.2 40.4"
	 style="enable-background:new 0 0 213.2 40.4;" xml:space="preserve">
<style type="text/css">
	.st0{fill:#FFFFFF;}
	.st1{fill:#91D44F;}
</style>
<sodipodi:namedview  bordercolor="#666666" borderopacity="1.0" fit-margin-bottom="0" fit-margin-left="0" fit-margin-right="0" fit-margin-top="0" id="base" inkscape:current-layer="layer1" inkscape:cx="158.78608" inkscape:cy="-10.41756" inkscape:document-units="mm" inkscape:pageopacity="0.0" inkscape:pageshadow="2" inkscape:window-height="744" inkscape:window-maximized="1" inkscape:window-width="1280" inkscape:window-x="-4" inkscape:window-y="-4" inkscape:zoom="1.8950705" pagecolor="#ffffff" showgrid="false" units="px">
	</sodipodi:namedview>
<g id="g12132" transform="translate(0.1322909,-0.13228912)">
	<path id="path7347" inkscape:connector-curvature="0" class="st0" d="M0.4,8.4h10.3l6.4,19.4h0.1l5.4-19.4h10.6L39,27.8h0.1L45,8.4
		h9.8L43.7,39.3h-9.6l-6.5-20.5h-0.1l-5.8,20.5h-9.8L0.4,8.4z"/>
	<path id="path7349" inkscape:connector-curvature="0" class="st0" d="M56.9,0.6h10.3v7.7H56.9V0.6z"/>
	<path id="path7351" inkscape:connector-curvature="0" class="st1" d="M56.9,8.4h10.3v30.9H56.9V8.4z"/>
	<path id="path7363" inkscape:connector-curvature="0" class="st0" d="M89.3,17.5c-1.4-1.7-3.3-2.6-5.6-2.6c-1.6,0-3.6,0.7-3.6,2.5
		c0,4.6,16.3,0.7,16.3,12.5C96.5,37.7,88.7,40,82,40c-4.4,0-9.2-1.1-12.3-4.2l5.9-6.4c1.8,2.2,3.9,3.4,6.8,3.4
		c2.2,0,4.4-0.6,4.4-2.2c0-5-16.3-0.8-16.3-12.5c0-7.3,6.6-10.4,13.2-10.4c4.1,0,8.7,1,11.6,4.1L89.3,17.5z"/>
	<path id="path7367" inkscape:connector-curvature="0" class="st0" d="M120.2,16h-8.5v10.3c0,3.3,0.4,5.7,4.6,5.7
		c1,0,3.1-0.1,3.9-0.9v7.9c-2.1,0.8-4.5,1-6.8,1c-6.5,0-11.4-2.6-11.4-9.3V16h-6.2V8.4h6.2V0.6h9.7v7.7h8.5L120.2,16z"/>
	<path id="path7371" inkscape:connector-curvature="0" class="st0" d="M123.6,8.4h9.7v5h0.1c2.1-3.7,4.8-5.7,9.1-5.7
		c1.1,0,2.3,0.1,3.2,0.3v8.7c-1.4-0.4-2.7-0.6-4.1-0.6c-7.4,0-8.3,4.2-8.3,10.4v12.9h-9.7L123.6,8.4z"/>
	<path id="path7375" inkscape:connector-curvature="0" class="st0" d="M144.7,23.8c0,9.9,7.8,16.2,17.5,16.2
		c9.7,0,17.4-6.4,17.4-16.2s-7.8-16.2-17.4-16.2C152.4,7.6,144.7,14,144.7,23.8 M154.4,23.8c0-4.6,2.9-7.8,7.8-7.8
		c4.8,0,7.8,3.2,7.8,7.8c0,4.6-2.9,7.8-7.8,7.8C157.3,31.6,154.4,28.5,154.4,23.8"/>
	<path id="path7379" inkscape:connector-curvature="0" class="st0" d="M182.3,8.4h9.3v4.2h0.1c1.3-2.4,4.5-5,9.2-5
		c9.8,0,11.6,6.4,11.6,14.6v17h-9.7V24.1c0-3.6-0.1-8.1-5-8.1c-5,0-5.8,3.9-5.8,7.9v15.4h-9.7L182.3,8.4z"/>
</g>
</svg>
